<?xml version="1.0" standalone="no"?>
<!DOCTYPE svg PUBLIC "-//W3C//DTD SVG 20010904//EN"
 "http://www.w3.org/TR/2001/REC-SVG-20010904/DTD/svg10.dtd">
<svg version="1.0" xmlns="http://www.w3.org/2000/svg"
 width="500.000000pt" height="180.000000pt" viewBox="0 0 500.000000 180.000000"
 preserveAspectRatio="xMidYMid meet">

<g transform="translate(0.000000,180.000000) scale(0.100000,-0.100000)"
fill="#000000" stroke="none">
<path d="M3491 1202 c-15 -12 -31 -61 -61 -182 -43 -179 -58 -215 -97 -244
-32 -24 -97 -26 -119 -4 -15 15 -15 24 -4 80 14 74 25 98 45 98 9 0 15 -13 17
-37 2 -32 7 -39 27 -41 32 -5 51 21 51 67 -1 61 -48 97 -111 84 -56 -11 -85
-53 -110 -158 -17 -75 -27 -100 -47 -115 -18 -15 -28 -17 -37 -10 -11 9 -10
22 1 68 29 123 37 170 31 185 -7 19 -52 23 -62 7 -4 -7 -23 -8 -48 -5 -34 5
-49 2 -77 -17 -30 -20 -38 -35 -54 -93 -38 -143 -49 -170 -75 -173 -21 -3 -23
-1 -17 20 22 82 29 140 20 156 -6 9 -30 27 -54 40 -25 12 -48 31 -52 42 -9 25
-31 34 -62 26 -28 -7 -40 -43 -27 -79 6 -16 4 -45 -7 -90 -17 -73 -11 -94 27
-82 15 4 26 23 37 61 12 42 20 54 32 52 18 -4 17 -2 10 -131 -3 -41 1 -52 21
-68 28 -23 71 -24 112 -4 21 12 34 13 48 5 28 -15 52 -12 92 9 23 13 41 16 50
10 25 -16 93 -10 128 12 28 17 38 19 62 9 17 -7 52 -10 91 -6 35 4 82 7 106 9
51 2 68 21 77 82 9 56 15 64 48 58 22 -4 27 -11 27 -35 0 -31 16 -68 34 -80
24 -16 84 -8 121 18 36 24 39 24 70 10 64 -31 156 -16 216 33 40 33 65 79 83
150 8 36 16 46 31 46 22 0 24 -17 10 -112 -7 -47 -5 -54 18 -77 42 -42 90 -36
142 17 64 64 85 157 36 157 -15 0 -28 -16 -48 -57 -27 -55 -55 -84 -69 -71 -3
4 1 39 11 78 21 87 13 113 -46 139 -23 10 -46 29 -53 42 -8 16 -22 25 -43 27
-41 4 -57 -22 -48 -82 7 -46 -15 -143 -40 -180 -37 -52 -134 -75 -169 -40 -30
29 -20 44 32 44 61 0 92 17 116 61 43 79 -11 155 -104 146 -65 -7 -102 -51
-124 -148 -19 -85 -47 -139 -74 -139 -15 0 -18 9 -17 60 0 33 6 65 13 72 7 7
12 29 12 50 0 47 -30 78 -76 78 -18 0 -35 4 -38 8 -3 5 1 30 9 57 20 64 19 82
-4 95 -15 7 -24 5 -40 -8z m377 -215 c5 -25 -16 -47 -44 -47 -18 0 -24 5 -24
23 0 13 6 29 12 35 18 18 52 11 56 -11z m-301 -14 c7 -19 -29 -53 -58 -53 -25
0 -24 25 1 50 24 24 48 26 57 3z m-593 -66 c8 -12 5 -37 -9 -93 -21 -80 -43
-110 -66 -87 -10 10 -9 31 5 95 23 107 42 130 70 85z"/>
<path d="M2418 1105 c-173 -17 -180 -19 -176 -53 3 -26 5 -27 61 -26 31 1 57
0 57 -2 0 -1 -21 -86 -46 -189 -25 -102 -44 -196 -42 -208 3 -24 42 -34 66
-18 8 4 37 102 66 217 l52 209 52 6 c71 9 82 15 82 43 0 21 -19 38 -38 35 -4
-1 -64 -7 -134 -14z"/>
<path d="M2096 1068 c-7 -13 -19 -48 -26 -78 -14 -63 -25 -80 -51 -80 -20 0
-39 -28 -32 -47 3 -7 14 -13 25 -13 17 0 20 -4 14 -30 -22 -110 -60 -190 -91
-190 -24 0 -24 14 -3 102 12 50 18 97 14 112 -9 35 -63 62 -102 50 -16 -4 -44
-7 -62 -5 -28 2 -34 -1 -46 -31 -7 -18 -21 -67 -31 -108 -9 -41 -23 -84 -30
-96 -28 -44 -134 -71 -163 -42 -7 7 -12 21 -12 33 0 18 6 20 56 20 50 0 58 3
85 33 22 25 29 42 29 75 0 71 -49 106 -127 94 -61 -10 -90 -49 -113 -147 -15
-64 -25 -80 -52 -80 -29 0 -32 26 -9 86 11 31 21 66 21 78 0 47 -50 61 -89 25
-31 -29 -43 -64 -43 -129 0 -53 -30 -130 -50 -130 -11 0 -9 26 6 135 14 91 10
118 -19 129 -29 11 -52 -28 -64 -109 -13 -91 -39 -132 -98 -160 -84 -40 -163
-16 -163 50 0 52 31 75 98 75 65 0 82 11 82 52 0 29 -23 48 -59 48 -11 0 -28
11 -36 24 -20 30 -6 72 31 88 24 11 29 10 54 -20 30 -37 64 -42 80 -11 27 49
-34 109 -110 109 -108 0 -189 -104 -146 -188 16 -30 15 -31 -11 -44 -44 -21
-66 -62 -71 -126 -4 -55 -2 -61 28 -95 57 -65 164 -73 262 -20 43 24 50 25 65
11 10 -8 26 -18 36 -21 29 -11 84 19 109 58 18 28 27 34 43 29 11 -4 40 -8 65
-8 27 -1 57 -9 75 -21 21 -15 44 -20 85 -18 113 3 170 9 181 20 6 6 23 61 39
122 27 108 49 151 76 151 24 0 24 -18 3 -104 -27 -106 -18 -139 41 -157 33
-10 44 -9 84 11 41 19 51 21 77 10 38 -16 100 -8 138 19 38 27 85 122 76 151
-11 35 -47 21 -70 -26 -29 -60 -54 -84 -87 -84 -24 0 -28 4 -28 28 0 15 4 43
9 62 6 19 15 54 21 78 9 35 15 42 35 42 23 0 55 23 55 39 0 14 -28 33 -39 27
-19 -12 -21 13 -7 72 15 65 8 92 -24 92 -11 0 -26 -10 -34 -22z m-506 -293 c0
-27 -23 -48 -47 -43 -12 3 -17 11 -15 28 5 49 62 62 62 15z"/>
<path d="M4060 729 c-334 -37 -1288 -139 -1295 -139 -3 0 -5 -7 -5 -15 0 -18
29 -19 150 -5 47 5 193 21 325 35 132 13 433 45 670 70 236 25 430 45 432 45
9 0 1 29 -9 32 -7 2 -128 -8 -268 -23z"/>
</g>
</svg>
