<svg id="Camada_1" data-name="Camada 1" xmlns="http://www.w3.org/2000/svg" viewBox="0 0 1557.49 451.21"><defs><style>.cls-1{font-size:183.84px;font-family:Bukhari-Script, Bukhari Script;}.cls-2{fill:#060606;}.cls-3{font-size:12px;font-family:MyriadPro-Regular, Myriad Pro;}.cls-4{letter-spacing:-0.01em;}.cls-5{letter-spacing:-0.01em;}</style></defs><text class="cls-1" transform="matrix(1, -0.08, 0.08, 1, 460.75, 226.73)">Tracker</text><path class="cls-2" d="M651.61,214c-2.71.16-6.06-1-6.31-5.41-.26-4.69,3.34-6,7.32-6.42q34.53-3.62,69.06-7.25,73.53-7.78,147.05-15.61,63.35-6.71,126.68-13.38L1142,150.44a24.24,24.24,0,0,1,4-.32c3.38.18,5.88,1.73,6.06,5.34.19,3.86-2.3,5.78-5.82,6.23-6.44.82-12.91,1.43-19.37,2.11Q1011.06,176,895.29,188.21q-120.21,12.73-240.43,25.56C654.2,213.84,653.53,213.88,651.61,214Z" transform="translate(-17.54 34.93)"/><text class="cls-3" transform="translate(1492.03 448.21)"><tspan class="cls-4">L</tspan><tspan x="5.5" y="0">o</tspan><tspan class="cls-5" x="12.08" y="0">r</tspan><tspan x="15.89" y="0">em ipsum</tspan></text><text class="cls-1" transform="matrix(1, -0.08, 0.08, 1, 14.55, 270.63)">Event</text></svg>